<svg width="41" height="40" viewBox="0 0 41 40" fill="none" xmlns="http://www.w3.org/2000/svg">
<g id="clock (1) 1" clip-path="url(#clip0_1128_1465)">
<g id="Group">
<g id="Group_2">
<path id="Vector" d="M20.271 40.0004C19.6238 40.0004 19.0991 39.4757 19.0991 38.8285C19.0991 38.1813 19.6238 37.6566 20.271 37.6566C30.0067 37.6566 37.9272 29.7361 37.9272 20.0004C37.9272 10.2647 30.0067 2.34412 20.271 2.34412C19.6238 2.34412 19.0991 1.81943 19.0991 1.17224C19.0991 0.525054 19.6238 0.000366211 20.271 0.000366211C25.6132 0.000366211 30.6356 2.08076 34.4132 5.85818C38.1907 9.63568 40.271 14.6582 40.271 20.0004C40.271 25.3426 38.1906 30.365 34.4132 34.1426C30.6356 37.92 25.6132 40.0004 20.271 40.0004Z" fill="white"/>
</g>
<g id="Group_3">
<path id="Vector_2" d="M29.6851 30.5863C29.3851 30.5863 29.0852 30.4719 28.8565 30.243L19.4424 20.829C19.2226 20.6092 19.0991 20.3111 19.0991 20.0004V8.23279C19.0991 7.5856 19.6238 7.06091 20.271 7.06091C20.9182 7.06091 21.4429 7.5856 21.4429 8.23279V19.515L30.5137 28.5858C30.9713 29.0435 30.9713 29.7854 30.5137 30.2431C30.2849 30.4719 29.985 30.5863 29.6851 30.5863Z" fill="white"/>
</g>
<g id="Group_4">
<path id="Vector_3" d="M13.4632 3.61398C13.6079 3.61398 13.7551 3.58702 13.8977 3.53007C13.9019 3.52843 14.3191 3.36226 14.7681 3.22187C15.248 3.07194 15.8153 2.91148 15.821 2.90991C16.4439 2.73398 16.806 2.0864 16.6301 1.46359C16.4542 0.840773 15.8071 0.478429 15.1838 0.654444C15.1595 0.661319 14.5804 0.825069 14.0691 0.984835C13.5299 1.15335 13.0473 1.34593 13.0271 1.35405C12.4264 1.59452 12.1344 2.27624 12.3746 2.87702C12.5579 3.33523 12.998 3.61398 13.4632 3.61398Z" fill="white"/>
<path id="Vector_4" d="M8.73365 3.66167C8.71318 3.67667 8.22826 4.03277 7.80536 4.36144C7.35911 4.70816 6.97458 5.05761 6.95849 5.0723C6.48005 5.50792 6.44544 6.2487 6.88083 6.7273C7.11208 6.98136 7.42935 7.11042 7.74794 7.11042C8.02935 7.11042 8.31161 7.00972 8.53615 6.80558C8.53951 6.80253 8.87193 6.50081 9.24349 6.21214C9.64052 5.90363 10.1157 5.55464 10.1204 5.5512C10.6422 5.16824 10.7547 4.43488 10.3718 3.91308C9.9888 3.39128 9.25544 3.2787 8.73365 3.66167Z" fill="white"/>
<path id="Vector_5" d="M5.35976 8.39958C4.81827 8.04497 4.09203 8.19638 3.73734 8.73779C3.72343 8.75896 3.3939 9.26232 3.11281 9.71841C2.81632 10.1994 2.57859 10.6614 2.56859 10.6808C2.27304 11.2565 2.49999 11.9625 3.07546 12.2582C3.24687 12.3462 3.42976 12.3879 3.61007 12.3879C4.03523 12.3879 4.44554 12.1558 4.65335 11.7517C4.65531 11.7477 4.86109 11.3486 5.10788 10.9482C5.37179 10.5201 5.69468 10.0268 5.69788 10.0219C6.05257 9.48052 5.90109 8.75419 5.35976 8.39958Z" fill="white"/>
<path id="Vector_6" d="M1.45488 18.77C1.50129 18.7754 1.54731 18.7781 1.59285 18.7781C2.17902 18.7781 2.68535 18.3391 2.75527 17.7427C2.75582 17.7382 2.80809 17.2967 2.89981 16.8309C2.99699 16.3377 3.12668 15.7627 3.12801 15.757C3.27066 15.1257 2.87457 14.4983 2.24324 14.3556C1.61184 14.2129 0.984649 14.6092 0.841915 15.2404C0.83629 15.2651 0.70379 15.8521 0.600274 16.3779C0.491134 16.932 0.43004 17.448 0.42754 17.4696C0.352071 18.1124 0.811993 18.6947 1.45488 18.77Z" fill="white"/>
<path id="Vector_7" d="M3.07549 24.0195C3.0744 24.0152 2.96869 23.5835 2.89158 23.1151C2.80987 22.619 2.72994 22.035 2.72916 22.0292C2.64158 21.3879 2.05182 20.9387 1.40948 21.0266C0.768225 21.1142 0.319397 21.705 0.406897 22.3462C0.410334 22.3713 0.491897 22.9675 0.578928 23.496C0.670725 24.0535 0.794319 24.5582 0.799553 24.5795C0.931038 25.114 1.40979 25.4717 1.93658 25.4717C2.02932 25.4717 2.12346 25.4606 2.21752 25.4375C2.84604 25.2828 3.23018 24.648 3.07549 24.0195Z" fill="white"/>
<path id="Vector_8" d="M5.08594 29.005C4.83571 28.5689 4.55625 28.0498 4.55344 28.0446C4.2468 27.4746 3.53594 27.2613 2.96633 27.5678C2.39633 27.8743 2.18282 28.5849 2.48946 29.1549C2.50141 29.1772 2.78664 29.7071 3.05328 30.1716C3.33453 30.6616 3.62696 31.091 3.6393 31.1091C3.8661 31.4414 4.23375 31.6203 4.60797 31.6203C4.83539 31.6203 5.06532 31.5542 5.26727 31.4164C5.80188 31.0517 5.93961 30.3228 5.57516 29.7881C5.57258 29.7843 5.32008 29.4131 5.08594 29.005Z" fill="white"/>
<path id="Vector_9" d="M9.93107 34.3165C9.9274 34.314 9.56091 34.0546 9.19865 33.7544C8.81154 33.4336 8.36802 33.0453 8.36365 33.0414C7.87701 32.6149 7.13646 32.6636 6.70998 33.1504C6.28341 33.6372 6.33224 34.3776 6.81896 34.8041C6.83802 34.8208 7.29068 35.2172 7.70318 35.5591C8.13818 35.9196 8.56255 36.2194 8.58044 36.2319C8.78568 36.3765 9.02123 36.446 9.25443 36.446C9.62248 36.446 9.98482 36.2731 10.2131 35.9495C10.586 35.4208 10.4597 34.6897 9.93107 34.3165Z" fill="white"/>
<path id="Vector_10" d="M15.6005 37.0311C15.5961 37.03 15.1662 36.9169 14.7179 36.7613C14.243 36.5964 13.6916 36.3878 13.6861 36.3857C13.081 36.1567 12.4045 36.4617 12.1753 37.067C11.9462 37.6723 12.2512 38.3487 12.8565 38.5778C12.8803 38.5868 13.4431 38.7996 13.9492 38.9753C14.4828 39.1606 14.9852 39.2927 15.0063 39.2983C15.1059 39.3244 15.2058 39.3369 15.3041 39.3369C15.824 39.3369 16.299 38.9883 16.4369 38.4618C16.6012 37.8357 16.2266 37.1952 15.6005 37.0311Z" fill="white"/>
</g>
</g>
</g>
<defs>
<clipPath id="clip0_1128_1465">
<rect width="40" height="40" fill="white" transform="translate(0.333496)"/>
</clipPath>
</defs>
</svg>
