<svg width="41" height="40" viewBox="0 0 41 40" fill="none" xmlns="http://www.w3.org/2000/svg">
<g id="renewable-energy 1" clip-path="url(#clip0_1128_1392)">
<g id="Group">
<g id="Group_2">
<path id="Vector" d="M28.8385 19.7308C28.7452 19.3355 28.4539 19.0167 28.0686 18.8883L22.3192 16.9718L26.4024 8.80532C26.6594 8.29126 26.5057 7.66665 26.0395 7.33063C25.5732 6.99446 24.932 7.04626 24.5256 7.45267L12.8069 19.1714C12.5197 19.4586 12.4017 19.874 12.495 20.2693C12.5884 20.6646 12.8796 20.9834 13.2649 21.1118L19.0143 23.0283L14.9311 31.1948C14.6741 31.7088 14.8277 32.3334 15.2941 32.6695C15.7632 33.0077 16.4042 32.9512 16.8079 32.5474L28.5267 20.8287C28.8138 20.5415 28.9319 20.1261 28.8385 19.7308ZM20.2568 25.7838L21.7148 22.8678C21.8667 22.564 21.8793 22.2092 21.7493 21.8953C21.6193 21.5815 21.3595 21.3395 21.0372 21.232L15.8048 19.4879L21.0765 14.2162L19.6185 17.1322C19.4666 17.436 19.454 17.7909 19.584 18.1047C19.714 18.4185 19.9738 18.6606 20.2961 18.768L25.5285 20.5121L20.2568 25.7838Z" fill="white"/>
</g>
</g>
<g id="Group_3">
<g id="Group_4">
<path id="Vector_2" d="M20.6668 0C14.7279 0 9.13819 2.67484 5.35428 7.16305V5.9375C5.35428 5.29031 4.8296 4.76562 4.18241 4.76562C3.53522 4.76562 3.01053 5.29031 3.01053 5.9375V10.8975C3.01045 10.9032 3.01053 10.9089 3.01053 10.9146V10.9161C3.01053 11.5909 3.58428 12.1269 4.25506 12.0857L8.94256 11.7946C9.58858 11.7545 10.0797 11.1983 10.0395 10.5523C9.99944 9.90625 9.44069 9.4157 8.79733 9.45531L6.41092 9.60352C9.72264 5.07813 15.0058 2.34375 20.6668 2.34375C30.4025 2.34375 38.323 10.2643 38.323 20C38.323 20.6472 38.8477 21.1719 39.4949 21.1719C40.1421 21.1719 40.6668 20.6472 40.6668 20C40.6668 8.98758 31.6786 0 20.6668 0Z" fill="white"/>
</g>
</g>
<g id="Group_5">
<g id="Group_6">
<path id="Vector_3" d="M37.0785 27.9144L32.391 28.2054C31.745 28.2455 31.2539 28.8016 31.294 29.4476C31.3341 30.0936 31.8889 30.5839 32.5362 30.5446L34.9225 30.3965C31.6108 34.9219 26.3278 37.6562 20.6667 37.6562C10.931 37.6562 3.0105 29.7357 3.0105 20C3.0105 19.3528 2.48581 18.8281 1.83862 18.8281C1.19144 18.8281 0.666748 19.3528 0.666748 20C0.666748 31.0124 9.65495 40 20.6667 40C26.6171 40 32.2028 37.3162 35.9793 32.8369V34.0625C35.9793 34.7097 36.5039 35.2344 37.1511 35.2344C37.7983 35.2344 38.323 34.7097 38.323 34.0625V29.1012C38.334 28.4302 37.7635 27.8732 37.0785 27.9144Z" fill="white"/>
</g>
</g>
</g>
<defs>
<clipPath id="clip0_1128_1392">
<rect width="40" height="40" fill="white" transform="translate(0.666748)"/>
</clipPath>
</defs>
</svg>
