<svg width="63" height="42" viewBox="0 0 63 42" fill="none" xmlns="http://www.w3.org/2000/svg">
<g id="discover" clip-path="url(#clip0_852_5692)">
<path id="Vector" d="M63 37.9423C63 39.8783 61.3327 41.4478 59.276 41.4478H3.72401C1.66729 41.4478 0 39.8781 0 37.9423V4.05763C0 2.1216 1.66729 0.552246 3.72401 0.552246H59.2759C61.3327 0.552246 62.9999 2.12171 62.9999 4.05763L63 37.9423Z" fill="#34495E"/>
<path id="Vector_2" opacity="0.15" d="M2.6476 37.9423V4.05763C2.6476 2.1216 4.31513 0.552246 6.37186 0.552246H3.72389C1.66729 0.552246 0 2.12183 0 4.05763V37.9423C0 39.8783 1.66729 41.4478 3.72401 41.4478H6.37198C4.31525 41.4478 2.6476 39.8781 2.6476 37.9423Z" fill="#202121"/>
<path id="Vector_3" d="M38.0694 20.977C38.0745 19.861 37.6299 18.7433 36.7352 17.9011C35.8386 17.0571 34.6482 16.639 33.4601 16.6457C33.4544 16.6457 33.4489 16.6454 33.443 16.6454C30.8629 16.6454 28.8164 18.5712 28.8164 21.0004C28.8164 23.4056 30.8881 25.3551 33.443 25.3551C36.0238 25.3551 38.07 23.4289 38.07 21.0004C38.07 20.9924 38.0694 20.9849 38.0694 20.977Z" fill="#F26E21"/>
<g id="Group">
<path id="Vector_4" d="M27.9565 22.8426C27.265 23.4942 26.6267 23.7488 25.9393 23.7626C24.2645 23.7485 23.0331 22.581 23.0331 20.9166C23.0331 20.0787 23.3702 19.392 23.9041 18.8054C24.4047 18.358 25.0498 18.0689 25.7915 18.0689C26.5922 18.0689 27.2153 18.3201 27.9266 18.9901V17.0639C27.2154 16.7291 26.592 16.5615 25.7915 16.5615C24.6604 16.6376 23.594 17.0678 22.776 17.7432C22.5402 17.9429 22.3143 18.1633 22.1227 18.4156C21.5252 19.1445 21.1641 20.0371 21.1641 21.0006C21.1641 23.429 23.2112 25.2715 25.7914 25.2715C25.8039 25.2715 25.8163 25.2704 25.8285 25.2703C25.8459 25.2705 25.863 25.2715 25.8802 25.2715C26.5919 25.2715 27.2153 25.1044 28.0159 24.7693L27.9565 22.8426C27.9265 22.8709 27.9863 22.8972 27.9565 22.9239V22.8426Z" fill="#E7E8E3"/>
<path id="Vector_5" d="M43.9077 17.7608L41.8927 22.4239L39.5792 16.896H37.7109L41.3588 25.3549H42.3375L46.1635 16.896H44.2953L43.9077 17.7608Z" fill="#E7E8E3"/>
<path id="Vector_6" d="M46.8789 20.5811V25.104H51.6839H51.7725V23.7635H50.26H48.6584V22.2563V21.5028H51.6839V20.0786H48.6584V18.32H51.7725V16.896H46.8789V20.5811Z" fill="#E7E8E3"/>
<path id="Vector_7" d="M6.65979 16.8961H4.16797V25.1041H6.65967C7.99411 25.1041 8.9727 24.7688 9.77349 24.1825C10.7521 23.4288 11.3752 22.2566 11.3752 21.0005C11.3753 18.5711 9.50648 16.8961 6.65979 16.8961ZM8.70606 23.0941C8.17216 23.5126 7.46033 23.7636 6.39253 23.7636H5.85863V18.32H6.30345C7.37125 18.32 8.08307 18.4875 8.6171 18.9898C9.23984 19.492 9.59594 20.2462 9.59594 21.0002C9.6849 21.7539 9.32905 22.5911 8.70606 23.0941Z" fill="#E7E8E3"/>
<path id="Vector_8" d="M13.8663 16.8955H12.1758V25.1033H13.8663V16.8955Z" fill="#E7E8E3"/>
<path id="Vector_9" d="M18.1375 20.0789C17.0699 19.7439 16.8027 19.4925 16.8027 19.0739C16.8027 18.5714 17.3366 18.1527 18.0484 18.1527C18.5823 18.1527 19.0271 18.3203 19.4721 18.8228L20.3621 17.7341C19.65 17.1476 18.7606 16.813 17.7818 16.813C16.2688 16.813 15.0231 17.8181 15.0231 19.1576C15.0231 20.3304 15.5575 20.8328 17.1588 21.4191C17.8706 21.67 18.1376 21.7541 18.3159 21.9215C18.6712 22.0888 18.8495 22.4241 18.8495 22.7587C18.8495 23.4288 18.3159 23.9315 17.5146 23.9315C16.7131 23.9315 16.0019 23.5128 15.6459 22.8427L14.5781 23.8477C15.3793 24.9364 16.358 25.4389 17.6037 25.4389C19.3831 25.4389 20.6282 24.3502 20.6282 22.7587C20.6285 21.3353 20.0951 20.749 18.1375 20.0789Z" fill="#E7E8E3"/>
<path id="Vector_10" d="M56.5741 21.6697C57.9083 21.4189 58.6204 20.581 58.6204 19.3251C58.6204 17.8178 57.4635 16.896 55.5063 16.896H52.9258V25.104H54.6163V21.8373H54.8836L57.2853 25.104H59.3321L56.5741 21.6697ZM55.15 20.6646H54.6164V18.1524H55.15C56.2178 18.1524 56.8409 18.571 56.8409 19.409C56.8409 20.2462 56.2179 20.6646 55.15 20.6646Z" fill="#E7E8E3"/>
</g>
</g>
<defs>
<clipPath id="clip0_852_5692">
<rect width="63" height="41" fill="white" transform="translate(0 0.5)"/>
</clipPath>
</defs>
</svg>
