<svg width="41" height="40" viewBox="0 0 41 40" fill="none" xmlns="http://www.w3.org/2000/svg">
<g id="discount 1" clip-path="url(#clip0_1128_1449)">
<g id="Group">
<g id="Group_2">
<path id="Vector" d="M38.0063 20.5185C37.8454 20.1892 37.8454 19.8115 38.0063 19.4823L39.4982 16.4304C40.3288 14.7311 39.6707 12.7057 37.9999 11.8192L34.9991 10.2271C34.6754 10.0553 34.4534 9.74971 34.3901 9.38885L33.8032 6.04286C33.4764 4.1799 31.7531 2.92803 29.8807 3.19295L26.5172 3.66873C26.1542 3.71998 25.7952 3.60326 25.5318 3.3485L23.0904 0.986635C21.7309 -0.328514 19.6013 -0.328592 18.2419 0.986635L15.8003 3.34873C15.5369 3.60357 15.1779 3.72006 14.815 3.66896L11.4515 3.19319C9.57842 2.92811 7.85577 4.18013 7.52898 6.04309L6.94211 9.38893C6.87875 9.74987 6.6568 10.0554 6.33313 10.2272L3.33236 11.8194C1.66159 12.7058 1.00347 14.7313 1.83409 16.4306L3.32588 19.4825C3.48681 19.8118 3.48681 20.1894 3.32588 20.5186L1.83401 23.5705C1.00339 25.2698 1.66151 27.2952 3.33228 28.1816L6.33305 29.7738C6.6568 29.9455 6.87875 30.2512 6.94211 30.612L7.52898 33.958C7.82648 35.6539 9.28069 36.8433 10.952 36.8432C11.1166 36.8432 11.2836 36.8316 11.4515 36.8078L14.815 36.3321C15.1778 36.2806 15.537 36.3975 15.8004 36.6523L18.2419 39.0142C18.9217 39.6718 19.7938 40.0006 20.6661 40.0005C21.5382 40.0004 22.4108 39.6716 23.0903 39.0142L25.5318 36.6523C25.7953 36.3975 26.1543 36.2811 26.5172 36.3321L29.8807 36.8078C31.754 37.0728 33.4764 35.8209 33.8032 33.9579L34.3901 30.6121C34.4535 30.2512 34.6755 29.9456 34.9991 29.7738L37.9999 28.1816C39.6707 27.2952 40.3288 25.2697 39.4982 23.5704L38.0063 20.5185ZM36.9186 26.1436L33.9178 27.7358C32.9611 28.2435 32.3049 29.1465 32.1178 30.2133L31.5309 33.5593C31.4204 34.1896 30.8377 34.6129 30.2038 34.5235L26.8403 34.0477C25.7677 33.8957 24.7063 34.241 23.9278 34.994L21.4862 37.3558C21.0264 37.8006 20.3059 37.8006 19.8459 37.3558L17.4044 34.9939C16.7464 34.3575 15.8863 34.0125 14.9883 34.0125C14.8238 34.0125 14.6579 34.0241 14.4918 34.0476L11.1283 34.5234C10.4951 34.6129 9.91186 34.1895 9.80123 33.5592L9.21428 30.2132C9.0271 29.1463 8.37101 28.2433 7.41421 27.7357L4.41345 26.1435C3.84814 25.8436 3.62549 25.1584 3.9065 24.5835L5.39837 21.5315C5.87399 20.5584 5.87399 19.4423 5.39837 18.4692L3.9065 15.4173C3.62549 14.8423 3.84814 14.1571 4.41345 13.8572L7.41421 12.265C8.37093 11.7573 9.0271 10.8543 9.2142 9.78745L9.80107 6.44153C9.9117 5.81122 10.4944 5.38778 11.1282 5.47731L14.4917 5.95309C15.5639 6.10489 16.6257 5.75981 17.4042 5.00677L19.8458 2.64491C20.3056 2.20007 21.0262 2.20007 21.4862 2.64491L23.9276 5.00677C24.7061 5.75989 25.7678 6.10489 26.8402 5.95309L30.2037 5.47731C30.837 5.3877 31.4202 5.81122 31.5308 6.44153L32.1177 9.78752C32.3048 10.8544 32.9609 11.7574 33.9177 12.265L36.9185 13.8572C37.4838 14.1571 37.7065 14.8423 37.4254 15.4173L35.9336 18.4691C35.458 19.4422 35.458 20.5584 35.9336 21.5314L37.4254 24.5833C37.7065 25.1584 37.4839 25.8437 36.9186 26.1436Z" fill="white"/>
</g>
</g>
<g id="Group_3">
<g id="Group_4">
<path id="Vector_2" d="M29.0998 11.571C28.6494 11.1205 27.919 11.1205 27.4685 11.571L12.2429 26.7967C11.7924 27.2472 11.7924 27.9776 12.2429 28.428C12.4681 28.6532 12.7633 28.7659 13.0585 28.7659C13.3537 28.7659 13.649 28.6533 13.8741 28.428L29.0997 13.2024C29.5504 12.7519 29.5504 12.0215 29.0998 11.571Z" fill="white"/>
</g>
</g>
<g id="Group_5">
<g id="Group_6">
<path id="Vector_3" d="M16.0448 9.61792C13.7126 9.61792 11.8152 11.5153 11.8152 13.8475C11.8152 16.1797 13.7126 18.0771 16.0448 18.0771C18.3769 18.0771 20.2744 16.1797 20.2744 13.8475C20.2744 11.5153 18.3769 9.61792 16.0448 9.61792ZM16.0448 15.77C14.9847 15.77 14.1223 14.9076 14.1223 13.8474C14.1223 12.7874 14.9847 11.9249 16.0448 11.9249C17.1048 11.9249 17.9673 12.7874 17.9673 13.8474C17.9673 14.9076 17.1048 15.77 16.0448 15.77Z" fill="white"/>
</g>
</g>
<g id="Group_7">
<g id="Group_8">
<path id="Vector_4" d="M25.2791 21.9221C22.947 21.9221 21.0496 23.8195 21.0496 26.1517C21.0496 28.4839 22.947 30.3813 25.2791 30.3813C27.6113 30.3813 29.5087 28.4839 29.5087 26.1517C29.5087 23.8195 27.6113 21.9221 25.2791 21.9221ZM25.2791 28.0742C24.2191 28.0742 23.3566 27.2118 23.3566 26.1517C23.3566 25.0916 24.219 24.2292 25.2791 24.2292C26.3392 24.2292 27.2016 25.0916 27.2016 26.1517C27.2016 27.2118 26.3392 28.0742 25.2791 28.0742Z" fill="white"/>
</g>
</g>
</g>
<defs>
<clipPath id="clip0_1128_1449">
<rect width="40" height="40" fill="white" transform="translate(0.666748)"/>
</clipPath>
</defs>
</svg>
