<svg width="24" height="24" viewBox="0 0 24 24" fill="none" xmlns="http://www.w3.org/2000/svg">
<g id="vuesax/linear/eye-slash">
<g id="eye-slash">
<path id="Vector" d="M14.53 9.47004L9.47001 14.53C8.82001 13.88 8.42001 12.99 8.42001 12C8.42001 10.02 10.02 8.42004 12 8.42004C12.99 8.42004 13.88 8.82004 14.53 9.47004Z" stroke="#292D32" stroke-width="1.5" stroke-linecap="round" stroke-linejoin="round"/>
<path id="Vector_2" d="M17.82 5.76998C16.07 4.44998 14.07 3.72998 12 3.72998C8.47 3.72998 5.18 5.80998 2.89 9.40998C1.99 10.82 1.99 13.19 2.89 14.6C3.68 15.84 4.6 16.91 5.6 17.77" stroke="#292D32" stroke-width="1.5" stroke-linecap="round" stroke-linejoin="round"/>
<path id="Vector_3" d="M8.42001 19.5301C9.56001 20.0101 10.77 20.2701 12 20.2701C15.53 20.2701 18.82 18.1901 21.11 14.5901C22.01 13.1801 22.01 10.8101 21.11 9.40005C20.78 8.88005 20.42 8.39005 20.05 7.93005" stroke="#292D32" stroke-width="1.5" stroke-linecap="round" stroke-linejoin="round"/>
<path id="Vector_4" d="M15.51 12.7C15.25 14.11 14.1 15.26 12.69 15.52" stroke="#292D32" stroke-width="1.5" stroke-linecap="round" stroke-linejoin="round"/>
<path id="Vector_5" d="M9.47 14.53L2 22" stroke="#292D32" stroke-width="1.5" stroke-linecap="round" stroke-linejoin="round"/>
<path id="Vector_6" d="M22 2L14.53 9.47" stroke="#292D32" stroke-width="1.5" stroke-linecap="round" stroke-linejoin="round"/>
</g>
</g>
</svg>
