<svg width="63" height="42" viewBox="0 0 63 42" fill="none" xmlns="http://www.w3.org/2000/svg">
<g id="american-express" clip-path="url(#clip0_852_5673)">
<path id="Vector" d="M63 37.9422C63 39.8782 61.3327 41.4477 59.276 41.4477H3.72401C1.66729 41.4478 0 39.8782 0 37.9422V4.05763C0 2.12171 1.66729 0.552246 3.72401 0.552246H59.276C61.3328 0.552246 63 2.12171 63 4.05763V37.9422Z" fill="#306FC5"/>
<path id="Vector_2" opacity="0.15" d="M2.6476 37.9422V4.05763C2.6476 2.12171 4.31513 0.552246 6.37186 0.552246H3.72389C1.66729 0.552246 0 2.1216 0 4.05763V37.9423C0 39.8783 1.66729 41.4478 3.72401 41.4478H6.37198C4.31525 41.4478 2.6476 39.8782 2.6476 37.9422Z" fill="#202121"/>
<g id="Group">
<path id="Vector_3" d="M9.17969 16.9176H11.0621L10.1211 14.6626L9.17969 16.9176Z" fill="white"/>
<path id="Vector_4" d="M19.1914 24.4873V25.5344H22.3573V26.6622H19.1914V27.8705H22.6994L24.3249 26.1788L22.785 24.4873H19.1914Z" fill="white"/>
<path id="Vector_5" d="M43.9175 14.6626L42.8906 16.9176H44.8588L43.9175 14.6626Z" fill="white"/>
<path id="Vector_6" d="M28.3458 28.5142V23.9238L26.1211 26.1789L28.3458 28.5142Z" fill="white"/>
<path id="Vector_7" d="M32.5389 25.2125C32.4533 24.7293 32.1107 24.4873 31.5971 24.4873H29.8008V25.9369H31.6833C32.1965 25.937 32.5389 25.6955 32.5389 25.2125Z" fill="white"/>
<path id="Vector_8" d="M38.5245 25.776C38.6957 25.6953 38.7815 25.4534 38.7815 25.2123C38.8672 24.8904 38.6957 24.7291 38.5245 24.6485C38.3538 24.5679 38.0968 24.5679 37.8405 24.5679H36.1289V25.8566H37.8404C38.0967 25.8566 38.3537 25.8566 38.5245 25.776Z" fill="white"/>
<path id="Vector_9" d="M50.8468 12.5684V13.5348L50.3338 12.5684H46.3129V13.5348L45.7993 12.5684H40.3234C39.3824 12.5684 38.612 12.7296 37.9278 13.0517V12.5684H34.0778V12.649V13.0517C33.6501 12.7297 33.1368 12.5684 32.4522 12.5684H18.6771L17.7356 14.5818L16.7947 12.5684H13.7147H12.4312V13.5348L12.0033 12.5684H11.9177H8.23871L6.52726 16.3533L4.55961 20.4605L4.52344 20.5412H4.55961H8.92322H8.97786L9.00886 20.4605L9.52246 19.2527H10.6347L11.148 20.5412H16.11V20.4605V19.5748L16.5381 20.5411H19.0191L19.4467 19.5748V20.4605V20.5412H21.4146H31.254H31.3397V18.4472H31.5112C31.6821 18.4472 31.6821 18.4472 31.6821 18.6889V20.4606H37.8424V19.9774C38.3558 20.2194 39.1253 20.4606 40.1522 20.4606H42.7193L43.2326 19.1724H44.4301L44.9435 20.4606H49.9057V19.6555V19.2529L50.6761 20.4606H50.8468H50.9327H54.6973V12.5684H50.847H50.8468ZM21.8427 19.3335H20.9869H20.4736V18.8506V14.904L20.388 15.0887V15.0865L18.3976 19.3335H18.3346H17.877H17.1366L15.0833 14.904V19.3335H12.1745L11.5756 18.1255H8.6663L8.06731 19.3335H6.56331L9.09438 13.696H11.2332L13.6288 19.0916V13.696H14.142H15.8956L15.9359 13.7767H15.9389L17.0184 15.9882L17.7935 17.6451L17.821 17.5616L19.5321 13.6961H21.8425V19.3335H21.8427ZM27.7464 14.904H24.4095V15.9509H27.6608V17.0782H24.4095V18.2061H27.7464V19.4137H22.9551V13.6961H27.7464V14.904ZM33.8489 16.9806C33.8512 16.9825 33.854 16.9837 33.8567 16.9855C33.8891 17.0177 33.9167 17.05 33.9404 17.0809C34.1043 17.2831 34.2368 17.5839 34.2434 18.025C34.2439 18.0326 34.2443 18.0401 34.2448 18.0478C34.2448 18.0522 34.2457 18.056 34.2457 18.0605C34.2457 18.0631 34.2454 18.065 34.2454 18.0675C34.2474 18.1118 34.2486 18.1571 34.2486 18.2061V19.3336H32.9655V18.6891C32.9655 18.367 32.9655 17.8837 32.7084 17.5616C32.6276 17.4855 32.5458 17.4353 32.4567 17.3996C32.3285 17.3215 32.0854 17.3202 31.6821 17.3202H30.1415V19.3336H28.6874V13.6961H31.9389C32.7084 13.6961 33.222 13.6961 33.65 13.9377C34.0692 14.1747 34.3224 14.5676 34.332 15.1899C34.3122 16.047 33.7277 16.5172 33.3075 16.6758C33.3075 16.6758 33.593 16.7299 33.8489 16.9806ZM36.7301 19.3335H35.2754V13.696H36.7301V19.3335ZM53.4143 19.3335H51.5316L48.7938 15.065V18.6084L48.7849 18.6001V19.337H47.3394V19.3336H45.8848L45.3714 18.1256H42.3766L41.8632 19.4139H40.2377C39.5537 19.4139 38.6975 19.253 38.1844 18.7698C37.671 18.2866 37.4146 17.6423 37.4146 16.5955C37.4146 15.7902 37.5855 14.9843 38.1844 14.3403C38.6119 13.8567 39.3822 13.6961 40.3232 13.6961H41.6925V14.904H40.3232C39.8098 14.904 39.5537 14.9842 39.2107 15.2263C38.9545 15.4678 38.7833 15.9509 38.7833 16.5146C38.7833 17.159 38.8689 17.5616 39.2107 17.8837C39.468 18.1256 39.81 18.2062 40.2377 18.2062H40.8365L42.8042 13.7769H43.6602H44.9433L47.3393 19.1726V18.8974V17.0785V16.9176V13.777H49.4781L51.9589 17.723V13.777H53.414V19.3337H53.4143V19.3335Z" fill="white"/>
<path id="Vector_10" d="M32.6281 16.0438C32.6531 16.0187 32.6758 15.9902 32.695 15.9575C32.7725 15.8421 32.8613 15.634 32.8134 15.3502C32.8115 15.3241 32.8064 15.3 32.8005 15.2767C32.7989 15.2703 32.7992 15.2646 32.7973 15.2581L32.7965 15.2582C32.7539 15.1203 32.6452 15.0355 32.5368 14.9841C32.3653 14.9038 32.1086 14.9038 31.8521 14.9038H30.1406V16.1925H31.8521C32.1086 16.1925 32.3654 16.1925 32.5368 16.1118C32.5626 16.0995 32.5854 16.0828 32.6075 16.064L32.6077 16.065C32.6077 16.065 32.6166 16.0563 32.6281 16.0438Z" fill="white"/>
<path id="Vector_11" d="M58.4626 27.387C58.4626 26.8233 58.2916 26.2594 58.0351 25.8568V22.2329H58.0312V21.991C58.0312 21.991 54.445 21.991 53.9112 21.991C53.3776 21.991 52.7302 22.474 52.7302 22.474V21.991H48.7946C48.1954 21.991 47.4259 22.1522 47.0832 22.474V21.991H40.0675V22.2329V22.4739C39.5546 22.0716 38.6126 21.9908 38.1852 21.9908H33.5649V22.2328V22.4738C33.1372 22.0714 32.11 21.9907 31.5964 21.9907H26.4636L25.2655 23.1988L24.1532 21.9907H23.795H23.2121H16.4531V22.2327V22.8689V30.1251H23.9824L25.2195 28.9603L26.2918 30.1251H26.3777H30.7161H30.9127H30.9984H31.0835V29.3198V28.2729H31.5116C32.11 28.2729 32.8804 28.2729 33.4792 28.0309V30.0441V30.2055H37.3295V30.0441V28.1115H37.5002C37.7572 28.1115 37.7572 28.1115 37.7572 28.3531V30.0441V30.2055H49.3929C50.1635 30.2055 50.9331 30.0441 51.3608 29.722V30.0441V30.2055H55.0401C55.8097 30.2055 56.5803 30.1251 57.0937 29.8027C57.8814 29.3579 58.3779 28.5704 58.4517 27.6312C58.4552 27.6034 58.4595 27.5756 58.4622 27.5477L58.4571 27.5432C58.4603 27.4911 58.4626 27.4396 58.4626 27.387ZM31.5117 26.9039H29.8001V27.1449V27.6283V28.1117V28.9976H26.9879L25.3511 27.2256L25.3455 27.2315L25.2655 27.1449L23.3832 28.9976H17.9075V23.3603H23.4689L24.9883 24.9267L25.3077 25.2547L25.351 25.2125L27.148 23.3604H31.6825C32.5625 23.3604 33.548 23.5648 33.9215 24.4076C33.9664 24.5745 33.9925 24.7601 33.9925 24.9709C33.9925 26.5814 32.7946 26.9039 31.5117 26.9039ZM40.0675 26.8232C40.2385 27.0642 40.3241 27.3869 40.3241 27.8703V28.9974H38.8698V28.2729C38.8698 27.9502 38.8698 27.3869 38.6128 27.1449C38.4421 26.9039 38.0994 26.9039 37.5864 26.9039H36.0465V28.9976H34.5921V23.2797H37.8431C38.5271 23.2797 39.126 23.2797 39.5546 23.521C39.982 23.7629 40.3241 24.1656 40.3241 24.8099C40.3241 25.6955 39.7255 26.1787 39.2975 26.3401C39.7255 26.5005 39.982 26.6621 40.0675 26.8232ZM45.9713 24.4872H42.6341V25.5342H45.8854V26.6619H42.6341V27.7896H45.9713V28.9974H41.18V23.2796H45.9713V24.4872ZM49.5645 28.9976H46.8265V27.7897H49.5645C49.8207 27.7897 49.9923 27.7897 50.1638 27.6285C50.2494 27.5477 50.3344 27.387 50.3344 27.2258C50.3344 27.0643 50.2494 26.904 50.1638 26.8233C50.0779 26.7428 49.9065 26.6622 49.6499 26.6622C48.2809 26.5816 46.6553 26.6622 46.6553 24.8906C46.6553 24.0852 47.1687 23.1992 48.7089 23.1992H51.5322V24.568H48.88C48.6235 24.568 48.4521 24.568 48.2808 24.6487C48.1101 24.7294 48.1101 24.8906 48.1101 25.0515C48.1101 25.2932 48.2808 25.3738 48.452 25.4537C48.6235 25.5344 48.7944 25.5344 48.9653 25.5344H49.7355C50.5056 25.5344 51.0188 25.6955 51.361 26.0178C51.6178 26.2595 51.789 26.6622 51.789 27.2258C51.789 28.4334 51.019 28.9976 49.5645 28.9976ZM56.9226 28.4334C56.5808 28.756 55.9816 28.9976 55.1256 28.9976H52.3883V27.7897H55.1255C55.3823 27.7897 55.5539 27.7897 55.7248 27.6285C55.81 27.5477 55.8959 27.387 55.8959 27.2258C55.8959 27.0643 55.81 26.904 55.7248 26.8233C55.6391 26.7428 55.4682 26.6622 55.2114 26.6622C53.8429 26.5816 52.2168 26.6622 52.2168 24.8907C52.2168 24.1253 52.6821 23.4338 53.8295 23.2285C53.9667 23.2106 54.1116 23.1992 54.2704 23.1992H57.094V24.568H55.2114H54.5271H54.4415C54.1847 24.568 54.0138 24.568 53.8429 24.6487C53.7568 24.7294 53.6711 24.8906 53.6711 25.0515C53.6711 25.2932 53.7568 25.3738 54.0138 25.4537C54.1847 25.5344 54.3559 25.5344 54.5271 25.5344H54.6122H55.2969C55.6709 25.5344 55.9536 25.5779 56.2124 25.6635C56.4494 25.7442 57.2339 26.0745 57.4094 26.9368C57.4247 27.0271 57.4359 27.1214 57.4359 27.2258C57.4359 27.7091 57.2647 28.1117 56.9226 28.4334Z" fill="white"/>
</g>
</g>
<defs>
<clipPath id="clip0_852_5673">
<rect width="63" height="41" fill="white" transform="translate(0 0.5)"/>
</clipPath>
</defs>
</svg>
