<svg width="40" height="40" viewBox="0 0 40 40" fill="none" xmlns="http://www.w3.org/2000/svg">
<g id="award 1">
<g id="Layer 2">
<path id="Vector" d="M36.6664 33.1332C36.4382 33.4767 36.1286 33.7584 35.7651 33.9533C35.4016 34.1481 34.9955 34.25 34.5831 34.2498H34.2997L31.5664 33.9165L30.5164 36.4332C30.3349 36.8564 30.0392 37.2209 29.6625 37.4857C29.2858 37.7506 28.8428 37.9056 28.3831 37.9332H28.1664C27.7303 37.931 27.3026 37.8125 26.9275 37.5898C26.5525 37.3672 26.2437 37.0484 26.0331 36.6665L23.0664 31.5165C23.6096 31.2139 24.1087 30.8381 24.5497 30.3998L25.6664 29.2832H26.9164C28.3518 29.2855 29.7467 28.8077 30.8792 27.9258C32.0118 27.044 32.8169 25.8087 33.1664 24.4165L36.6664 30.5332C36.9067 30.9242 37.0339 31.3742 37.0339 31.8332C37.0339 32.2921 36.9067 32.7421 36.6664 33.1332Z" fill="#2F9831"/>
<path id="Vector_2" d="M17.468 31.7832L14.6347 36.6665C14.4184 37.0411 14.1075 37.3522 13.7331 37.5687C13.3586 37.7851 12.9339 37.8993 12.5014 37.8998H12.3514C11.8917 37.8722 11.4487 37.7173 11.0719 37.4524C10.6952 37.1875 10.3996 36.8231 10.218 36.3998L9.1347 33.8665L6.4347 34.2165C5.97766 34.2712 5.51442 34.1978 5.09669 34.0045C4.67895 33.8112 4.32316 33.5056 4.06903 33.1218C3.8149 32.738 3.67244 32.2912 3.65755 31.8311C3.64266 31.3711 3.75592 30.9159 3.9847 30.5165L7.0847 25.1665C7.54774 26.3826 8.36957 27.4291 9.44115 28.1673C10.5127 28.9056 11.7834 29.3005 13.0847 29.2998H14.3347L15.4514 30.4165C16.0322 30.9942 16.7163 31.4577 17.468 31.7832Z" fill="#2F9831"/>
<path id="Vector_3" d="M32.7023 13.1498L31.319 11.7831C31.0312 11.4758 30.8704 11.0709 30.869 10.6498V8.98313C30.8646 7.93688 30.447 6.93473 29.7072 6.19491C28.9674 5.45509 27.9652 5.03752 26.919 5.03313H25.2523C24.829 5.02717 24.4238 4.86033 24.119 4.56647L22.7357 3.18313C21.9855 2.46787 20.9888 2.06885 19.9523 2.06885C18.9158 2.06885 17.9191 2.46787 17.169 3.18313L15.7857 4.56647C15.4809 4.86033 15.0757 5.02717 14.6523 5.03313H12.9857C11.9497 5.06366 10.9672 5.50012 10.2501 6.24839C9.53303 6.99667 9.13875 7.99681 9.15232 9.03313V10.6998C9.14636 11.1231 8.97951 11.5283 8.68565 11.8331L7.30232 13.1998C6.93194 13.5643 6.63779 13.9988 6.437 14.4781C6.23622 14.9574 6.13281 15.4718 6.13281 15.9915C6.13281 16.5111 6.23622 17.0256 6.437 17.5048C6.63779 17.9841 6.93194 18.4187 7.30232 18.7831L8.68565 20.1665C8.97563 20.4671 9.14218 20.8656 9.15232 21.2831V22.9498C9.15232 23.993 9.56673 24.9934 10.3044 25.7311C11.042 26.4687 12.0425 26.8831 13.0857 26.8831H14.7523C15.1757 26.8891 15.5809 27.0559 15.8857 27.3498L17.269 28.7331C18.009 29.468 19.0095 29.8804 20.0523 29.8804C21.0952 29.8804 22.0957 29.468 22.8357 28.7331L24.219 27.3498C24.5238 27.0559 24.929 26.8891 25.3523 26.8831H27.019C28.0637 26.8831 29.0659 26.4693 29.8062 25.7321C30.5465 24.9949 30.9646 23.9945 30.969 22.9498V21.2831C30.9746 20.8678 31.1351 20.4696 31.419 20.1665L32.8023 18.7831C33.1719 18.41 33.4629 17.9667 33.6584 17.4794C33.8539 16.992 33.9498 16.4704 33.9405 15.9454C33.9312 15.4203 33.8168 14.9025 33.6041 14.4224C33.3915 13.9422 33.0849 13.5095 32.7023 13.1498ZM25.6857 14.8165L20.119 20.3331C19.8846 20.5672 19.5669 20.6987 19.2357 20.6987C18.9044 20.6987 18.5867 20.5672 18.3523 20.3331L15.569 17.5498C15.3349 17.3154 15.2034 16.9977 15.2034 16.6665C15.2034 16.3352 15.3349 16.0175 15.569 15.7831C15.8083 15.552 16.128 15.4228 16.4607 15.4228C16.7934 15.4228 17.113 15.552 17.3523 15.7831L19.2357 17.6831L23.9023 12.9998C24.1416 12.7686 24.4613 12.6394 24.794 12.6394C25.1267 12.6394 25.4464 12.7686 25.6857 12.9998C25.9197 13.2342 26.0512 13.5519 26.0512 13.8831C26.0512 14.2144 25.9197 14.5321 25.6857 14.7665V14.8165Z" fill="#2F9831"/>
</g>
</g>
</svg>
