<svg width="41" height="40" viewBox="0 0 41 40" fill="none" xmlns="http://www.w3.org/2000/svg">
<g id="megaphone 1">
<g id="Group">
<g id="Group_2">
<path id="Vector" d="M35.2536 15.7744L21.9988 2.51971C20.6286 1.1494 18.3987 1.14932 17.0284 2.51971C15.7965 3.7515 15.6904 5.63017 16.6001 6.97165L16.5816 7.06391C15.626 11.8424 13.2995 16.1896 9.85353 19.6355L3.77393 25.7151C2.40034 27.0888 2.40011 29.3119 3.77393 30.6856L7.08752 33.9992C8.46103 35.3728 10.6843 35.3728 12.058 33.9992L12.8864 33.1707L18.6853 38.9696C20.0589 40.3433 22.282 40.3434 23.6557 38.9696C25.0261 37.5993 25.0261 35.3696 23.6557 33.9993L21.1705 31.514L21.9989 30.6856C23.3725 29.3121 23.3726 27.089 21.9989 25.7152L21.4359 25.1522C24.2054 23.2132 27.3506 21.8633 30.7094 21.1915L30.8029 21.1728C32.1742 22.0987 34.0485 21.9498 35.2536 20.7447H35.2536C36.6238 19.3745 36.6238 17.1448 35.2536 15.7744ZM10.4012 32.3424C9.94338 32.8001 9.20213 32.8002 8.74431 32.3423L5.43073 29.0287C4.97284 28.5707 4.97284 27.8298 5.43073 27.3719L11.2295 21.573L16.2 26.5435C15.6327 27.1108 10.9825 31.761 10.4012 32.3424ZM21.9988 35.656C22.4555 36.1127 22.4555 36.856 21.9988 37.3128C21.5421 37.7695 20.7987 37.7695 20.342 37.3128L14.5431 31.5139L16.2 29.8571L21.9988 35.656ZM17.8568 28.2003C18.209 27.8481 18.7362 27.3086 19.5682 26.598L20.342 27.3719C20.7999 27.8298 20.7999 28.5707 20.342 29.0287L19.5136 29.8572L17.8568 28.2003ZM17.9066 24.9365L12.8364 19.8664C15.5535 16.729 17.4993 13.0255 18.5403 9.00204L28.7709 19.2326C24.7475 20.2736 21.0441 22.2194 17.9066 24.9365ZM33.5965 19.0879C33.1386 19.5457 32.3976 19.5457 31.9397 19.0879L18.6852 5.83329C18.2273 5.37532 18.2273 4.63439 18.6852 4.1765C19.143 3.71861 19.8841 3.71861 20.342 4.1765L33.5965 17.431C34.0533 17.8878 34.0533 18.631 33.5965 19.0879Z" fill="white"/>
</g>
</g>
<g id="Group_3">
<g id="Group_4">
<path id="Vector_2" d="M12.0605 25.7152C11.6031 25.2577 10.8612 25.2577 10.4037 25.7152L8.74693 27.372C8.28943 27.8295 8.28943 28.5713 8.74693 29.0288C9.20435 29.4863 9.94631 29.4863 10.4037 29.0288L12.0605 27.372C12.518 26.9145 12.518 26.1727 12.0605 25.7152Z" fill="white"/>
</g>
</g>
<g id="Group_5">
<g id="Group_6">
<path id="Vector_3" d="M27.3801 0C26.733 0 26.2085 0.52453 26.2085 1.17156V3.51468C26.2085 4.16171 26.733 4.68624 27.3801 4.68624C28.0271 4.68624 28.5516 4.16171 28.5516 3.51468V1.17156C28.5516 0.52453 28.0271 0 27.3801 0Z" fill="white"/>
</g>
</g>
<g id="Group_7">
<g id="Group_8">
<path id="Vector_4" d="M36.7505 9.37231H34.4074C33.7604 9.37231 33.2358 9.89684 33.2358 10.5439C33.2358 11.1909 33.7604 11.7154 34.4074 11.7154H36.7505C37.3976 11.7154 37.9221 11.1909 37.9221 10.5439C37.9221 9.89684 37.3975 9.37231 36.7505 9.37231Z" fill="white"/>
</g>
</g>
<g id="Group_9">
<g id="Group_10">
<path id="Vector_5" d="M35.239 2.68614C34.7816 2.22864 34.0397 2.22864 33.5822 2.68614L31.2391 5.02926C30.7816 5.48676 30.7816 6.22856 31.2391 6.68606C31.6965 7.14356 32.4384 7.14363 32.8959 6.68606L35.239 4.34294C35.6965 3.88544 35.6965 3.14372 35.239 2.68614Z" fill="white"/>
</g>
</g>
</g>
</svg>
