<svg width="63" height="41" viewBox="0 0 63 41" fill="none" xmlns="http://www.w3.org/2000/svg">
<rect width="63" height="41" rx="8" fill="#EFF7FF"/>
<path d="M28.3749 27.75H24.5398L26.9367 13.2589H30.7722L28.3749 27.75ZM21.3135 13.2589L17.6573 23.226L17.2247 21.0797L17.2251 21.0805L15.9346 14.5637C15.9346 14.5637 15.7786 13.2589 14.1154 13.2589H8.07093L8 13.5043C8 13.5043 9.8484 13.8826 12.0116 15.1606L15.3436 27.7504H19.3394L25.441 13.2589H21.3135ZM51.4785 27.75H55L51.9297 13.2585H48.8468C47.4232 13.2585 47.0764 14.3385 47.0764 14.3385L41.3567 27.75H45.3545L46.154 25.5975H51.0294L51.4785 27.75ZM47.2585 22.624L49.2736 17.2011L50.4072 22.624H47.2585ZM41.6565 16.7437L42.2038 13.6318C42.2038 13.6318 40.515 13 38.7545 13C36.8513 13 32.3318 13.8183 32.3318 17.7973C32.3318 21.541 37.6362 21.5875 37.6362 23.5539C37.6362 25.5203 32.8783 25.168 31.3081 23.928L30.7379 27.1817C30.7379 27.1817 32.4504 28 35.0668 28C37.6839 28 41.6321 26.6669 41.6321 23.0388C41.6321 19.271 36.28 18.9202 36.28 17.2821C36.2804 15.6436 40.0154 15.8541 41.6565 16.7437Z" fill="#1C5AA0"/>
<path d="M17.2251 21.0801L15.9346 14.5633C15.9346 14.5633 15.7786 13.2585 14.1154 13.2585H8.07093L8 13.5039C8 13.5039 10.9052 14.0962 13.6918 16.3154C16.3562 18.4365 17.2251 21.0801 17.2251 21.0801Z" fill="#E6A540"/>
</svg>
